<svg xmlns="http://www.w3.org/2000/svg" width="124" height="33">
  <path fill="#9e9e9e" d="M46.2 6.7h-6.8a1 1 0 00-1 .9L35.7 25a.6.6 0 00.5.6h3.3a1 1 0 001-.8l.7-4.7a1 1 0 011-.8h2c4.6 0 7.2-2.2 7.9-6.5.3-1.9 0-3.4-.9-4.4-1-1.1-2.7-1.8-5-1.8zm.8 6.5c-.4 2.4-2.2 2.4-4 2.4h-1l.6-4.6a.6.6 0 01.6-.5h.5c1.2 0 2.4 0 3 .7.3.5.4 1 .3 2zm19.7-.1h-3.3a.6.6 0 00-.6.5l-.1.9-.3-.4c-.7-1-2.2-1.3-3.8-1.3a7.5 7.5 0 00-7.3 6.6c-.4 1.9 0 3.7 1.2 5 1 1.2 2.4 1.7 4.1 1.7 3 0 4.5-2 4.5-2l-.1 1a.6.6 0 00.6.6h3a1 1 0 00.8-.8l1.8-11.2a.6.6 0 00-.5-.6zM62 19.4a3.6 3.6 0 01-3.7 3.2c-1 0-1.7-.3-2.2-1-.5-.5-.7-1.3-.5-2.2a3.7 3.7 0 013.7-3.2c.9 0 1.6.3 2.1 1 .5.5.7 1.3.6 2.2zm22-6.3h-3.3a1 1 0 00-.8.4l-4.5 6.7-2-6.4a1 1 0 00-.9-.7h-3.2a.6.6 0 00-.5.7l3.6 10.7-3.4 4.8a.6.6 0 00.4.9h3.3a1 1 0 00.8-.4l11-15.8a.6.6 0 00-.5-1z"/>
  <path fill="#e3e4e4" d="M95 6.7h-6.8a1 1 0 00-1 .9L84.4 25a.6.6 0 00.6.6h3.5a.7.7 0 00.7-.5l.8-5a1 1 0 01.9-.8h2.2c4.5 0 7-2.2 7.7-6.5.4-1.9 0-3.4-.8-4.4-1-1.1-2.7-1.8-5-1.8zm.8 6.5c-.4 2.4-2.3 2.4-4 2.4h-1.1l.7-4.6a.6.6 0 01.6-.5h.4c1.3 0 2.4 0 3 .7.4.5.5 1 .4 2zm19.6-.1h-3.2a.6.6 0 00-.6.5l-.1.9-.3-.4c-.7-1-2.3-1.3-3.8-1.3a7.5 7.5 0 00-7.4 6.6c-.3 1.9.2 3.7 1.3 5 1 1.2 2.4 1.7 4 1.7 3 0 4.6-2 4.6-2l-.1 1a.6.6 0 00.5.6h3a1 1 0 001-.8l1.7-11.2a.6.6 0 00-.6-.6zm-4.5 6.3a3.6 3.6 0 01-3.7 3.2c-1 0-1.7-.3-2.2-1-.5-.5-.7-1.3-.5-2.2a3.7 3.7 0 013.6-3.2c1 0 1.7.3 2.2 1 .5.5.7 1.3.6 2.2zm8.4-12.2l-2.8 17.9a.6.6 0 00.5.6h2.9a1 1 0 001-.8l2.7-17.5a.6.6 0 00-.6-.7H120a.6.6 0 00-.6.5z"/>
  <path fill="#9e9e9e" d="M7.3 29.2l.5-3.4H1L4.9 1.3a.3.3 0 01.3-.3h9.4c3.1 0 5.3.7 6.4 2 .5.6.9 1.2 1 1.9a7 7 0 010 2.6v.8l.6.3a3.7 3.7 0 011 .8c.5.5.8 1.1.9 2 .1.7 0 1.7-.1 2.7a9.9 9.9 0 01-1.2 3.2 6.5 6.5 0 01-1.8 2c-.7.5-1.5.9-2.5 1.1-.9.3-2 .4-3 .4H15c-.5 0-1 .2-1.4.5a2.2 2.2 0 00-.8 1.3v.3l-1 5.9V29a.2.2 0 01-.1 0H7.3z"/>
  <path fill="#e3e4e4" d="M23 7.7v.5c-1.3 6.4-5.5 8.6-11 8.6H9.4c-.6 0-1.2.4-1.3 1l-1.4 9-.4 2.6a.7.7 0 00.7.8h4.9c.6 0 1-.4 1.1-1v-.3l1-5.8v-.3c.1-.6.6-1 1.2-1h.7c4.8 0 8.5-2 9.6-7.5.4-2.3.2-4.2-1-5.6a4.7 4.7 0 00-1.4-1z"/>
  <path fill="#696969" d="M21.8 7.2a9.8 9.8 0 00-1.2-.3 15.3 15.3 0 00-2.5-.2h-7.3a1.2 1.2 0 00-1.2 1l-1.5 10v.2a1.3 1.3 0 011.2-1.1h2.8c5.4 0 9.6-2.2 10.9-8.6v-.5a6.6 6.6 0 00-1-.5 9 9 0 00-.2 0z"/>
  <path fill="#9e9e9e" d="M9.6 7.7a1.2 1.2 0 011.2-1H18c.9 0 1.7 0 2.5.2a9.8 9.8 0 011.4.3l1 .5c.4-2.4 0-4-1.2-5.4C20.4.7 17.8 0 14.6 0H5.2C4.6 0 4 .5 4 1.1L0 26a.8.8 0 00.8 1h5.8l1.5-9.3 1.5-9.9z"/>
</svg>