<svg id="Layer_1" data-name="Layer 1" xmlns="http://www.w3.org/2000/svg" viewBox="0 0 274.4 69.5"><defs><style>.cls-1,.cls-2{fill:#fff}.cls-1{fill-rule:evenodd}</style></defs><path class="cls-1" d="M41 61.3a41 41 0 005 4.9c-3 1.2-5.3.7-7.5-1.5l1.7-2.3.9-1zm-2.8 3.8l-2 2.6a5.1 5.1 0 003.6 1.1L38.2 65zm-6 2.4a5 5 0 01-4 1.3 43.3 43.3 0 001.8-4l1.8 2.3.3.5zm-2.4-3l-2.7-3.3a40.3 40.3 0 01-5 5c3 1.2 5.3.6 7.7-1.7zm-6.7-12.7a5.2 5.2 0 01-5.4-1.8 36.5 36.5 0 005-1.9l.1.7.2 3zm-.4-4a14.4 14.4 0 00-1.3-3c2.4 0 4.6-1.5 6.6-2.7l1.8-1-12.1-15.5 6-14.1a28 28 0 016-7.5c-3.6-1.4-6.5.2-9.3 4.6l-2 3A29.8 29.8 0 0119.8 4c-4.6.7-5 4.7-5 12.9v.1a27.4 27.4 0 01-.3-10.6c-4.2 1.4-4.3 5-3 12a29 29 0 01-1.6-8c-4 2.3-3 6-.2 13a28.3 28.3 0 01-4-8.2C2.5 18.3 4 21.6 8.3 27.5A28.5 28.5 0 012.6 21c-2 3.4-.3 5.9 4 9.6a33 33 0 01-6.5-3.4c-.5 4.2 2.2 6 8 7.8a29 29 0 01-8-1.8C.7 38 4.4 38.6 12 38.8a28.5 28.5 0 01-8.6-.5C4.6 42.5 8.1 42.8 15 42l.3.4a33.3 33.3 0 01-7.7.5C9.3 47 12.7 47 19 45.4l.3.1a30.6 30.6 0 01-6.6 1.7c2.3 3.1 5.1 2.8 10 .6zm15.7-7l12-15.1-6-14.3a27.8 27.8 0 00-6-7.5c3.6-1.4 6.5.3 9.2 4.7l2 3A29.4 29.4 0 0048.2 4c4.7.7 5.1 4.7 5 12.9v.1a27.4 27.4 0 00.5-10.6c4.1 1.4 4.2 5 3 12a29 29 0 001.5-8c4 2.3 3.1 6 .2 13a28.6 28.6 0 004-8.2c3.2 3.1 1.7 6.4-2.6 12.3a29 29 0 005.7-6.4c2 3.4.3 6-4 9.6a33.5 33.5 0 006.5-3.4c.5 4.2-2.2 6-8 7.8a28.8 28.8 0 008-1.8c-.6 4.6-4.3 5.3-12 5.5a28.4 28.4 0 008.6-.4c-1.1 4.1-4.6 4.4-11.4 3.6l-.3.4a33.2 33.2 0 007.7.5c-1.8 4.1-5.2 4.1-11.5 2.5l-.3.1a30.4 30.4 0 006.6 1.7c-2.3 3.1-5.1 2.8-10 .6a9 9 0 01.4-1.4 18.4 18.4 0 01.8-1.7c-2.2 0-4.2-1.5-6-2.6-.7-.4-1.4-1-2.2-1.3zm7 7.5a28 28 0 00-.4 3.5 5.2 5.2 0 005.4-1.8 36.4 36.4 0 01-5-1.9zm-14.1-8a8 8 0 000-2.7 2.6 2.6 0 00-.4-1.2c-.7 0-.4 0-.9-.3s-1 0-1.4.7c-.4-1.7.5-2.5 1.8-2.6 2-2 5-1.5 6 1.4a30.5 30.5 0 01.7 4.5 6.8 6.8 0 00-2.7-.6 8 8 0 00-3.1.8z"/><path class="cls-1" d="M43 51.5a23 23 0 01-.3 3.3 6.7 6.7 0 01-1 2.4 35.8 35.8 0 01-2.2 3l-.8 1-4.5 5.8-.2-.3-.6-.8-.3-.4-.5-.7-.3-.4-.6-.7-.3-.4-.5-.7-.3-.4-.6-.6-.3-.4-.5-.7-.3-.4-.5-.6-.4-.5v-.1l-.5-.6-.4-.4c0-.2-.3-.4-.5-.6l-.3-.5 7.7-7.6-7.7 7.7-.3-.6-.1-.2-.3-.5a6.7 6.7 0 01-.2-1l-.1-.5v-.4l-.1-.7V51.2l-.1-.7-.1-1.1v-.7-.1c0-.1 0-.3-.2-.5s0-.3 0-.4l-.2-.6-.1-.4-.1-.5.5-.2.3-.1.2-.1.4-.2h.1l.5-.2 1.6-1 .6-.3.9-.5 1.4-.8 1.4-.7h.2l.3-.2h.3l.2-.1a3.9 3.9 0 01.7-.1h.5c1.5 0 3 1 4.6 2l.8.5a20 20 0 004 2.1 19.4 19.4 0 00-.9 5.2zM39.5 43c-1.6-1-3.3-2.1-5-2.1-1.9 0-3.7 1-5.5 2.1l-.8.5a17.9 17.9 0 01-5 2.3 11.7 11.7 0 01.9 3l.2 3 .2 2a7.2 7.2 0 00.8 3 18.4 18.4 0 002 2.7l.4.5c2 2.4 3.6 4.4 5 6.4l1.5 2 5-6.7.8-1c.8-1 1.6-2 2.2-3a7.3 7.3 0 001.1-2.6 22.3 22.3 0 00.4-3.4 17.4 17.4 0 011-5.6l.1-.3a16.2 16.2 0 01-4.5-2.3z"/><path class="cls-1" d="M39 43.5c-1.5-1-3-2-4.6-2H34v25.2l.2.3 4.4-5.9.8-1a35.8 35.8 0 002.2-3 6.7 6.7 0 001-2.2 23 23 0 00.4-3.4 19.4 19.4 0 01.8-5.3 20 20 0 01-3.9-2.1zM34 57.6l-4 4 .5.6 3.5-3.4zM34 46l-8.6 8.7a6.7 6.7 0 00.2 1l8.4-8.4zM33.4 65.9l.6.8v-1.4z"/><path class="cls-1" d="M34 63.3l-1.4 1.5.5.7 1-1zM34 59.5l-3.1 3.1.5.7 2.6-2.6zM34 61.4l-2.2 2.3.5.7 1.7-1.8zM34 55.7l-4.8 4.8.5.6L34 57zM33.3 41.7H33l-.2.1-.4.2h-.1L25 49.4v1l9-8.8a3.9 3.9 0 00-.7.1zM34 42.2l-9 9v1.1l9-8.9zM29.4 43.6l-.8.5-.6.3-3.3 3.3.1.4v.6l6-6-1.4.9zM34 44.1L25.2 53v.7l.1.4 8.7-8.8zM25.9 56.1v.2l.4.6 7.7-7.7V48zM34 51.8l-6.6 6.6.5.5.1.1 6-6zM34 53.7l-5.7 5.7.5.7 5.2-5.2zM26.4 45.3l-.5.3h-.1l-.4.2h-.2l-.3.2-.6.2.2.4v.5zM34 49.9l-7.4 7.4.5.7L34 51z"/><path class="cls-2" d="M96.7 47.3v16.5a4.6 4.6 0 001 2.7 4.2 4.2 0 002.6 1.1l3 .2v1H75v-1h1.8l2.5-.3a3 3 0 001.9-.9A4.5 4.5 0 0082 64l.1-2.7v-28l-.1-2.7a4.5 4.5 0 00-.9-2.7 3.2 3.2 0 00-2-.9 21.5 21.5 0 00-2.2-.2l-1.8-.1v-1h26.4a66.8 66.8 0 019 .5A13.2 13.2 0 01116 28a11 11 0 013.4 3.5 9.3 9.3 0 011.3 4.8 12.2 12.2 0 01-.7 4.2 9.1 9.1 0 01-2.3 3.5 10.8 10.8 0 01-3.8 2.3 23 23 0 01-7.2.8v.5l5 1.2a12.5 12.5 0 013.6 1.7 10.3 10.3 0 013 3.4 22.3 22.3 0 012.2 4.8 18.7 18.7 0 001.5 3.8 2 2 0 001.8 1c1 0 1.7-.6 2-2a18.1 18.1 0 00.5-4.4h1a23.3 23.3 0 01-.4 4.6 8.9 8.9 0 01-1.8 3.5 9.9 9.9 0 01-4 3 14 14 0 01-5.6 1.2 10.5 10.5 0 01-7.7-2.8 12.3 12.3 0 01-3.5-7.2l-1.1-7.5q-.7-3.5-1.7-4a5.4 5.4 0 00-2.3-.7h-2.5zm4.7-1.2q2.3-.4 3.4-3.3a17.3 17.3 0 001.2-6.4 14.7 14.7 0 00-1.2-5.7c-.8-1.9-1.7-3-2.8-3.3a12.8 12.8 0 00-3-.5l-2.3-.1v19.4h2a18.2 18.2 0 002.7-.1zM178 47.3a20.4 20.4 0 01-7 15.8 24.5 24.5 0 01-16.9 6.4 24.1 24.1 0 01-17-6.3 20.7 20.7 0 01-6.8-15.9q0-10 7-16A24.5 24.5 0 01154 25a24.8 24.8 0 0116.9 6.2 20.3 20.3 0 017 16zm-18-16.1c-1-3.3-3.1-5-6-5a5.5 5.5 0 00-3.8 1.4 9 9 0 00-2.4 4.1 32.9 32.9 0 00-1.3 7q-.3 4.1-.3 8.6a85.2 85.2 0 00.4 9.9 35.9 35.9 0 001.8 7.5q1.3 3.6 5.6 3.6a5.5 5.5 0 003.8-1.3 9 9 0 002.5-4.1 32.8 32.8 0 001.2-7q.4-4.1.4-8.6 0-5.2-.3-9a30 30 0 00-1.5-7.1zM211.2 68.8h-28.8v-1h1.8l2.5-.3a3 3 0 001.8-1 4.5 4.5 0 00.9-2.5V30.5a4.5 4.5 0 00-1-2.6 3.1 3.1 0 00-2-1 21 21 0 00-2.2-.2h-1.9v-1H210q9.6 0 12.8 2a12.7 12.7 0 014.4 4.6 11.6 11.6 0 011.2 5.3 15.6 15.6 0 01-.8 5.1 9.5 9.5 0 01-2.6 4 10.9 10.9 0 01-4.2 2.3 23.3 23.3 0 01-6.6.8H208q-2.4 0-3.9.2v11.3l.1 2.7a4.5 4.5 0 00.9 2.6 3.2 3.2 0 002 1 25.2 25.2 0 002.5.2h1.7zm2.4-31.2a24.4 24.4 0 00-1-6.6q-.8-3.2-2.6-3.7a14.2 14.2 0 00-3.5-.5H204v22h2.4a24.4 24.4 0 003.3-.5q2-.4 3-3.6a25.8 25.8 0 00.9-7.1zM238.4 55.3l-1.8 6.2a13.4 13.4 0 00-.6 3.3 2.3 2.3 0 00.7 2 4 4 0 001.7.7 14 14 0 002.1.2l2 .2v1h-16.8v-1l3.5-.3a6.3 6.3 0 003-1 4.6 4.6 0 001.6-1.8 87.3 87.3 0 002-5.5l11.4-33.7h6.5L266 59.3 268 64a8 8 0 001.7 2.6 4.4 4.4 0 002.4 1l2.4.3v1h-28v-1h1.3l2-.3a6.8 6.8 0 002.1-.6 1.8 1.8 0 00.6-1.7 12.7 12.7 0 00-.8-3.7l-2.1-6.2zm10.7-1.2l-5.2-14.5-5 14.5zM166.7.1l-.7.4a1.9 1.9 0 00-1 1.7v14.4a1.9 1.9 0 001.3 2 1.1 1.1 0 01.5.3 7.6 7.6 0 01-3-1 1.2 1.2 0 01-.5-1.1V2A1.2 1.2 0 01164 1a7 7 0 012-.8l.7-.2zM105 13.5v-2.4a41.4 41.4 0 00-.2-4.3c0-.4-.1-.6-.5-.6s-.3-.1-.1-.3a.5.5 0 01.4-.3h1.4l.2.1V6c-.3.2-.3.5-.3.7l-.2 2.7-.1 5.4c0 .1 0 .3-.2.3a.3.3 0 01-.4-.1q-2-2.3-4.2-4.5l-3-3.1v-.1a.7.7 0 00-.1.4V14a.9.9 0 00.5.9c.1 0 .3.1.3.3s-.3 0-.4 0H96.2l.1-.3c.5-.2.4-.6.5-1 0-1.6.2-3.2.3-4.7V7c0-.6 0-.8-.6-1a.2.2 0 01-.2-.2c0-.1 0-.2.2-.2a7.5 7.5 0 011.8 0c.2 0 .4.1.2.4s0 .3.2.4l5.3 5.9zM158 18.8a1.2 1.2 0 01.5-.3 1.8 1.8 0 001.1-1.8V4.4a1.9 1.9 0 00-1-1.8l-.7-.3.1-.1a7.6 7.6 0 012.8 1 1.1 1.1 0 01.5 1v12.6a1.3 1.3 0 01-.6 1.1 7.3 7.3 0 01-2.8 1zM143.1 13.4a6.8 6.8 0 01-2 1.4 4.7 4.7 0 01-6.5-3.5 3.9 3.9 0 01.1-1.7 7.3 7.3 0 011.3-2.8 2.4 2.4 0 011.5-1 10 10 0 013.8 0 5.2 5.2 0 011.6.7c.3.1.2.2 0 .3a3.9 3.9 0 00-.3.2.5.5 0 01-.7 0 4.3 4.3 0 00-4.5-.1 3.8 3.8 0 00-1.6 2.7c-.6 3 1.8 4.6 4 4.7a4 4 0 003-1 1.5 1.5 0 00.5-1.2 7.4 7.4 0 000-1c-.1-.5-.2-.6-.7-.8-.3 0-.6 0-.6-.2s.4-.3.6-.3h1.6c.2 0 .3 0 .4.2s0 .2-.2.3a1 1 0 00-.3 1 7.8 7.8 0 01-.2 3 3.7 3.7 0 01-.5 1.2s-.1.2-.2.1v-.2a4.6 4.6 0 000-2zM78.3 13.3c.3 0 .3.3.5.5a7.4 7.4 0 00-.1-3l-.8-2.9a12 12 0 01-.2-2.2 7.4 7.4 0 00-.7-3.2v-.3c0-.2.2.1.3.2a2 2 0 01.4.4 2.9 2.9 0 002.5 1.3l.6.1-.5.4a3 3 0 00-1 .7l.4-.2h.4l-.2.3a9.9 9.9 0 00-.8 1.1c.2 0 .3-.2.4 0s0 .2 0 .3l-.2.5v.2c.4 0 .3.2.2.4a2.6 2.6 0 000 1.5 16.3 16.3 0 01-.1 4.8c0 .2 0 .4.2.4a12.8 12.8 0 004.5-.6l.7-.3h.3v.3l-1.3 2s-.1.2-.2.1l-.1-.2c0-.6 0-.6-.6-.6a44 44 0 00-3.9-.1c-.3 0-.5.2-.7.3a1.8 1.8 0 01-1.1.1.8.8 0 01-.5-.6c0-.3.2-.3.4-.4.4-.1.7-.4 1.1-.6.3 0 .1-.3.1-.5v-.2zM126.2 10.3h-1.4a.4.4 0 00-.4.3 39.1 39.1 0 00-1.7 3.6.5.5 0 000 .6c.2.2.1.3-.1.3h-1.8a.2.2 0 01-.1 0v-.3a13 13 0 003-4.1l2-4a5.3 5.3 0 01.8-1c.1-.1.3-.2.3 0a9.2 9.2 0 001.4 3c1 1.8 2 3.4 2.8 5.2a6 6 0 00.7.9c0 .1.2.2 0 .3l-.3.1h-1.6-.2a.2.2 0 010-.4c.4-.1.3-.4.2-.6a29 29 0 00-1.8-3.6.5.5 0 00-.5-.3zm0-.6h.9c.3 0 .4 0 .2-.4l-1-1.5c0-.3-.1-.3-.3 0a17.9 17.9 0 00-1 1.7c-.1.1 0 .2.1.2zM153.3 16.1c0-.7 0-.7-.7-.8a15.2 15.2 0 00-2.2 0h-1.8c0-.2.2-.3.3-.4a.7.7 0 00.2-.6v-3.2c0-.3 0-.4-.3-.3a9.2 9.2 0 01-1.1.2 3 3 0 011-.8.5.5 0 00.4-.5V7a.8.8 0 00-.6-.8c-.2 0-.2-.1 0-.3a.8.8 0 01.6 0h2.8c.7 0 .8 0 1-.8a4 4 0 011.3-1.7 7.4 7.4 0 00-.2.9A2.1 2.1 0 00154 6a.5.5 0 01-.4.7h-3.3c-.2 0-.3 0-.3.2v3c0 .2.2.3.4.4a3 3 0 001.8 0l.7-.3v.1a2.8 2.8 0 01-2.5.9c-.2 0-.4 0-.4.2 0 1 0 2.1-.2 3.2 0 .3.1.4.5.4a11.5 11.5 0 004.1-.8l.5.1c.1.1 0 .3-.1.4l-1.6 1.6zM110.5 10.8a2.2 2.2 0 011-.8.5.5 0 00.4-.5l-.1-2.5a1 1 0 00-.5-.8c-.3-.2-.1-.3 0-.4a2.5 2.5 0 011.2 0l3-.1c.4 0 .8-.1 1.1.3a.3.3 0 01.1.3l-.2.1h-3c-.6-.1-.7 0-.6.5v2.6c0 .3.1.4.3.5a3.1 3.1 0 002 0l.5-.2a.4.4 0 000 .1 2.6 2.6 0 01-2.5.9c-.2 0-.3 0-.3.2l-.1 1.5-.1 1.8c0 .2 0 .3.3.3a12 12 0 004.2-.7l.2-.1.4.1-.1.3-1.4 1.5s-.1.2-.2.1v-.2c0-.4-.2-.4-.5-.4-1.3-.2-2.6 0-3.9 0l-.4-.1c0-.1.1-.3.3-.3a.9.9 0 00.3-.8v-3.1c0-.3-.1-.4-.4-.3zM89.7 5.6a2.7 2.7 0 01.7 0s.2 0 .2.2-.1.2-.2.2c-.4.1-.5.4-.5.8V14c0 .3 0 .6.5.6l.1.2a.4.4 0 01-.3.3 3 3 0 01-.5 0l-1.2-.2-.2-.1.2-.2c.5 0 .5-.4.5-.8V9.4l-.2-3.1a.4.4 0 00-.3-.3s-.2-.1-.1-.3.1 0 .2 0z"/></svg>