<svg id="Capa_1" data-name="Capa 1" xmlns="http://www.w3.org/2000/svg" viewBox="0 0 486.4 329.2">
  <defs>
    <style>
      .cls-1{fill:#e2a63b}.cls-2{fill:#f4b844}.cls-3{fill:#fedb41}
    </style>
  </defs>
  <path class="cls-1" d="M486.4 318v55.3c0 18.8-50.1 34.5-111.8 34.5s-110.8-15.2-110.8-34v-6.3l-1-43.9h.6c8.3 16.2 54.3 28.8 109.7 28.8s112.3-15.7 112.3-34.5z" transform="translate(0 -78.6)"/>
  <path class="cls-2" d="M371.5 112v55h-1c0 19.3-51.8 34.4-112.9 34.4a268.5 268.5 0 01-70.6-7.8l-1 1a122 122 0 00-38.7-21.4v-1l-1.5-58C149.4 131.9 198 146 257 146s113.3-15.2 113.3-34z" transform="translate(0 -78.6)"/>
  <path class="cls-3" d="M371.5 113.1c0 18.8-51.8 34-113.4 34S150 133 146.3 115.2c0-.5-.5-1.6-.5-2 0-18.9 50.1-34.6 112.3-34.6 62.2-.5 113.4 15.2 113.4 34.5z" transform="translate(0 -78.6)"/>
  <path class="cls-2" d="M263.3 323.7l-.5-11.5-1-47C265.4 282.9 314 297 373 297s111.3-15.2 112.8-33.4h.6v54.3h-1c0 18.8-50.7 34.5-112.4 34.5s-101.3-12.5-109.7-28.7z" transform="translate(0 -78.6)"/>
  <path class="cls-1" d="M188.6 358.7a112.1 112.1 0 0030.8-48h2.6c11.5 1 23 1.5 35.5 1.5h5.3v11.5l1 43.9H258a271 271 0 01-67.9-7.4z" transform="translate(0 -78.6)"/>
  <path class="cls-2" d="M263.3 261v2.6l1 48.6h-5.2c-13 0-25-.5-36.6-1.6H220a107.5 107.5 0 005.2-34 106.2 106.2 0 00-2.6-22.4h2.6c11 1 22 1.5 34 1.5l4.7 2.7a5.7 5.7 0 00-.6 2.6z" transform="translate(0 -78.6)"/>
  <path class="cls-1" d="M187 193.6a268.5 268.5 0 0070.5 7.8c61.2 0 112.9-15.1 112.9-34.5h1v61.7c-57 0-103.4 13.6-109.2 30.8l-4.7-2.6q-17.2 0-32.9-1.6H222a105.5 105.5 0 00-36-61.1z" transform="translate(0 -78.6)"/>
  <path class="cls-3" d="M223 255.2a114.4 114.4 0 00-37-62.1 99.3 99.3 0 00-39.7-22 100.8 100.8 0 00-33-5.2 112.3 112.3 0 10-2 224.6A112.7 112.7 0 00220 311.1a104.2 104.2 0 005.2-33.4c0-7.3-2.1-15.2-2.1-22.5zM485.9 262.5v1C484.3 282 433.6 297 373 297s-107.6-14.1-111.3-31.9v-2.6a6.6 6.6 0 01.5-3.1c5.8-17.3 52.3-30.8 109.2-30.8h1.6c61.7 0 112.9 15.1 112.9 34z" transform="translate(0 -78.6)"/>
  <path class="cls-1" d="M70.5 340l-30-109.1-.1-.7c0-1 .6-1.4 1.7-1.4h24.5a2 2 0 012.1 1.6l14 58.7c.1.4.3.6.5.6s.4-.2.5-.6l12.6-58.6a2 2 0 012-1.7h22.5a2 2 0 012 1.6l14 58.7c.2.4.3.6.6.6s.3-.2.4-.6l13.2-58.6a2 2 0 012-1.7h24c1.5 0 2 .6 1.7 2L151.5 340a2.1 2.1 0 01-2.3 1.6h-23a2 2 0 01-2.1-1.8L110 277.6c-.1-.4-.3-.7-.5-.7s-.4.3-.5.7l-12.5 62.2a2 2 0 01-2.1 1.8H72.8a2.1 2.1 0 01-2.3-1.6z" transform="translate(0 -78.6)"/>
</svg>